<svg id="Layer_1" data-name="Layer 1" xmlns="http://www.w3.org/2000/svg" viewBox="0 0 512 512"><defs><style>.cls-1{fill:#757889;}.cls-2{fill:#ffb85a;}.cls-3{fill:#896438;}.cls-4{opacity:0.1;}.cls-5{fill:#fff;}.cls-6{opacity:0.08;}</style></defs><title>hat-flat</title><path class="cls-1" d="M396.74,372.8c0,7.3-3.07,13.63-8.51,19.07q-1.34,1.34-2.88,2.69t-3.26,2.5c-1.09.77-2.3,1.6-3.52,2.37a81.75,81.75,0,0,1-10.3,5.31c-.7.32-1.47.64-2.24,1q-3.46,1.44-7.1,2.69c-30.4,10.56-72.7,14-102.91,14s-72.51-3.46-102.91-14q-3.65-1.25-7.1-2.69c-.77-.32-1.54-.64-2.24-1a81.75,81.75,0,0,1-10.3-5.31c-1.22-.77-2.43-1.6-3.52-2.37s-2.24-1.66-3.26-2.5-2-1.79-2.88-2.69c-5.44-5.44-8.51-11.78-8.51-19.07a24.69,24.69,0,0,1,1.28-7.62l17.66-58.24,84.54-279.3a38.91,38.91,0,0,1,74.5,0l84.54,279.3,17.73,58.56A23,23,0,0,1,396.74,372.8Z"/><path class="cls-1" d="M256,345.6c-127.22,0-256,28.58-256,83.2S128.78,512,256,512s256-28.58,256-83.2S383.22,345.6,256,345.6Z"/><path class="cls-2" d="M396.74,372.8c0,7.3-3.07,13.63-8.51,19.07q-1.34,1.34-2.88,2.69t-3.26,2.5c-1.09.77-2.3,1.6-3.52,2.37a81.75,81.75,0,0,1-10.3,5.31c-.7.32-1.47.64-2.24,1q-3.46,1.44-7.1,2.69c-30.4,10.56-72.7,14-102.91,14s-72.51-3.46-102.91-14q-3.65-1.25-7.1-2.69c-.77-.32-1.54-.64-2.24-1a81.75,81.75,0,0,1-10.3-5.31c-1.22-.77-2.43-1.6-3.52-2.37s-2.24-1.66-3.26-2.5-2-1.79-2.88-2.69c-5.44-5.44-8.51-11.78-8.51-19.07a24.69,24.69,0,0,1,1.28-7.62l17.66-58.24C167,315.2,210.3,320,256,320s89-4.8,121.79-13.06l17.73,58.56A23,23,0,0,1,396.74,372.8Z"/><circle class="cls-2" cx="454.4" cy="320" r="12.8"/><circle class="cls-2" cx="416" cy="243.2" r="19.2"/><circle class="cls-2" cx="448" cy="134.4" r="12.8"/><circle class="cls-2" cx="32" cy="326.4" r="12.8"/><circle class="cls-2" cx="76.8" cy="281.6" r="19.2"/><circle class="cls-2" cx="89.6" cy="204.8" r="12.8"/><circle class="cls-3" cx="256" cy="372.03" r="32"/><g class="cls-4"><path class="cls-5" d="M256,0,180.42,415.55c-35.26-7-65.15-20-65.15-42.75a23.49,23.49,0,0,1,1.34-7.74L218.75,27.65A38.23,38.23,0,0,1,256,0Z"/></g><g class="cls-6"><path d="M396.74,372.8c0,22.72-29.89,35.78-65.15,42.75L256,0a38.23,38.23,0,0,1,37.25,27.65L395.52,365.5A22.07,22.07,0,0,1,396.74,372.8Z"/></g></svg>