<svg id="Layer_1" data-name="Layer 1" xmlns="http://www.w3.org/2000/svg" viewBox="0 0 512 512"><defs><style>.cls-1{fill:#d4d8dd;}.cls-2{fill:#9acc79;}.cls-3{fill:#88b769;}.cls-4{fill:#757889;}.cls-5{opacity:0.1;}.cls-10,.cls-6{fill:#fff;}.cls-7{opacity:0.08;}.cls-8{fill:#ffb85a;}.cls-9{fill:#896438;}.cls-10{opacity:0.2;}</style></defs><title>jar-flat</title><path class="cls-1" d="M384,119.62V101.75a32,32,0,0,1-6.4.65H134.4a32,32,0,0,1-6.4-.65v17.86a102.81,102.81,0,0,0-70.4,98V408.51A103.57,103.57,0,0,0,161.09,512H350.91A103.57,103.57,0,0,0,454.4,408.51V217.6A102.81,102.81,0,0,0,384,119.62Z"/><path class="cls-2" d="M57.6,307.2V408.53A103.58,103.58,0,0,0,161.07,512H350.93A103.58,103.58,0,0,0,454.4,408.53V307.2Z"/><circle class="cls-3" cx="307.2" cy="441.6" r="12.8"/><circle class="cls-3" cx="160" cy="403.2" r="12.8"/><circle class="cls-3" cx="345.6" cy="396.8" r="19.2"/><rect class="cls-4" x="102.4" width="307.2" height="102.4" rx="32" ry="32"/><g class="cls-5"><path class="cls-6" d="M166.4,0h-32a32,32,0,0,0-32,32V70.4a32,32,0,0,0,32,32h32Z"/></g><g class="cls-7"><path d="M345.6,0h32a32,32,0,0,1,32,32V70.4a32,32,0,0,1-32,32h-32Z"/></g><path class="cls-6" d="M326.4,307.2a76.8,76.8,0,1,0-83.17,76.48c0,.11,0,.21,0,.32,0,3.51-.91,4.64-3.59,8-3.67,4.58-9.21,11.51-9.21,24s5.54,19.42,9.21,24c2.69,3.36,3.59,4.49,3.59,8a12.8,12.8,0,0,0,25.6,0c0-12.49-5.54-19.42-9.21-24-2.69-3.36-3.59-4.49-3.59-8s.91-4.64,3.59-8c3.67-4.58,9.21-11.51,9.21-24a12.86,12.86,0,0,0-.25-2.45A76.76,76.76,0,0,0,326.4,307.2Z"/><circle class="cls-8" cx="224" cy="281.6" r="38.4"/><circle class="cls-9" cx="217.6" cy="275.2" r="12.8"/><g class="cls-7"><path d="M282,237.65a76.7,76.7,0,0,1-84,126.3,76.73,76.73,0,1,0,84-126.3Z"/></g><path class="cls-7" d="M384,119.62V101.75a32,32,0,0,1-6.4.65h-32V173c38.59,2.3,64,29.06,64,61.82V381.57a143.27,143.27,0,0,1-84,130.43h25.34A103.57,103.57,0,0,0,454.4,408.51V217.6A102.81,102.81,0,0,0,384,119.62Z"/><path class="cls-10" d="M102.4,381.57V234.82c0-32.77,25.41-59.52,64-61.82V102.4h-32a32,32,0,0,1-6.4-.65v17.86a102.81,102.81,0,0,0-70.4,98V408.51A103.57,103.57,0,0,0,161.09,512h25.34A143.27,143.27,0,0,1,102.4,381.57Z"/></svg>