<svg id="Layer_1" data-name="Layer 1" xmlns="http://www.w3.org/2000/svg" viewBox="0 0 512 512"><defs><style>.cls-1{fill:#e4e6ea;}.cls-2{fill:#757889;}.cls-3{opacity:0.12;}.cls-4{opacity:0.3;}.cls-5{fill:#fff;}.cls-6{opacity:0.4;}.cls-7{fill:#9acc79;}.cls-8{fill:#2b374f;}.cls-9{fill:#88b769;}</style></defs><title>elixir-filled</title><path class="cls-1" d="M347,178.3h-.06A73.09,73.09,0,0,1,323,132.67l-1-12.5a26.08,26.08,0,0,0,9.72-6.06A25.61,25.61,0,0,0,313.6,70.4H198.4A25.6,25.6,0,0,0,190,120.19l-1,12.49a73.09,73.09,0,0,1-23.94,45.63H165a110.13,110.13,0,0,0-37,82.37V435.2a64,64,0,0,0,64,64H320a64,64,0,0,0,64-64V260.67A110.13,110.13,0,0,0,347,178.3Z"/><path class="cls-2" d="M322.43,30.78l-6.59,39.87a13.35,13.35,0,0,0-2.24-.26H198.4a13.35,13.35,0,0,0-2.24.26l-6.59-39.87a15.43,15.43,0,0,1,15.23-18H307.2A15.43,15.43,0,0,1,322.43,30.78Z"/><g class="cls-3"><path d="M307.2,12.8H286.53l-9.66,57.6H313.6a13.35,13.35,0,0,1,2.24.26l6.59-39.87A15.43,15.43,0,0,0,307.2,12.8Z"/></g><g class="cls-4"><path class="cls-5" d="M235.52,70.4H198.4a13.35,13.35,0,0,0-2.24.26l-6.59-39.87a15.43,15.43,0,0,1,15.23-18h21.12Z"/></g><g class="cls-6"><path class="cls-5" d="M217.6,70.4v51.2H198.4a25.6,25.6,0,1,1,0-51.2Z"/></g><g class="cls-3"><path d="M339.2,96a25.57,25.57,0,0,1-25.6,25.6H300.8V70.4h12.8A25.59,25.59,0,0,1,339.2,96Z"/></g><path class="cls-7" d="M128,313.6V435.2a64,64,0,0,0,64,64H320a64,64,0,0,0,64-64V313.6Z"/><g class="cls-6"><path class="cls-5" d="M179.2,279.87V435.2a76.66,76.66,0,0,0,34.43,64H192a64,64,0,0,1-64-64V260.67a110.13,110.13,0,0,1,37-82.37h.06A73.09,73.09,0,0,0,189,132.67l1-12.61a24.64,24.64,0,0,0,8.38,1.54h25l-1.54,28.74A60.79,60.79,0,0,1,202,188C175.74,211.26,179.2,244.8,179.2,279.87Z"/></g><g class="cls-3"><path d="M384,260.67V435.2a64,64,0,0,1-64,64H298.37a76.66,76.66,0,0,0,34.43-64V279.87c0-35.07,3.46-68.61-22.78-91.9a60.79,60.79,0,0,1-19.84-37.63l-1.54-28.74h25a24.64,24.64,0,0,0,8.38-1.54l1,12.61a73.09,73.09,0,0,0,23.94,45.63H347A110.13,110.13,0,0,1,384,260.67Z"/></g><path class="cls-8" d="M355.52,168.76l-.05,0a60,60,0,0,1-19.72-37l-.33-4.08a38.37,38.37,0,0,0-5.08-66.14l4.75-28.53A28.27,28.27,0,0,0,307.2,0H204.8a28.27,28.27,0,0,0-27.88,32.91l4.75,28.53a38.37,38.37,0,0,0-5.07,66.15l-.29,3.53a60.34,60.34,0,0,1-19.83,37.65,123.09,123.09,0,0,0-41.28,91.92V435.2A76.89,76.89,0,0,0,192,512H320a76.89,76.89,0,0,0,76.8-76.8V260.68A123.08,123.08,0,0,0,355.52,168.76ZM194.23,108l-1.41-.49a12.78,12.78,0,0,1,2.73-24l1.75-.15a4.64,4.64,0,0,0,1.1-.18H313.27c.48.06.95.13,1.43.17l1.75.15a12.78,12.78,0,0,1,2.73,24l-1.41.49a12.71,12.71,0,0,1-4.17.81H198.4A12.71,12.71,0,0,1,194.23,108Zm8.53-81.45a2.59,2.59,0,0,1,2-.94H307.2a2.67,2.67,0,0,1,2.63,3.11L305,57.6H207l-4.82-28.9A2.6,2.6,0,0,1,202.77,26.54Zm-29.22,161.3a86.14,86.14,0,0,0,28.14-53.45H310.3a85.9,85.9,0,0,0,28.19,53.48l0,0a97.46,97.46,0,0,1,32.68,72.78V300.8H140.8V260.68A97.51,97.51,0,0,1,173.54,187.85ZM320,486.4H192a51.26,51.26,0,0,1-51.2-51.2V326.4H371.2V435.2A51.26,51.26,0,0,1,320,486.4Z"/><circle class="cls-9" cx="230.4" cy="441.6" r="12.8"/><circle class="cls-9" cx="288" cy="409.6" r="19.2"/><circle class="cls-9" cx="243.2" cy="364.8" r="12.8"/></svg>