<svg id="Layer_1" data-name="Layer 1" xmlns="http://www.w3.org/2000/svg" viewBox="0 0 512 512"><defs><style>.cls-1{fill:#d4d8dd;}.cls-2{opacity:0.08;}.cls-3{fill:#ffb85a;}.cls-4{fill:#ffcd92;}</style></defs><title>magic-wand-flat</title><path class="cls-1" d="M337.91,223.1a12.58,12.58,0,0,1-3.78,9L65.51,500.74a38.38,38.38,0,1,1-54.28-54.27L279.86,177.86a12.71,12.71,0,0,1,18.11,0L334.13,214A12.84,12.84,0,0,1,337.91,223.1Z"/><g class="cls-2"><path d="M337.91,223.1a12.58,12.58,0,0,1-3.78,9L65.51,500.74a38.32,38.32,0,0,1-54.28,0L316.08,196l18,18A12.84,12.84,0,0,1,337.91,223.1Z"/></g><path class="cls-3" d="M466.68,185.34l-31.82-42.42,16.57-50a25.6,25.6,0,0,0-32.35-32.35l-50,16.57L326.65,45.32a25.6,25.6,0,0,0-41,21l1.12,52.2-42.54,29.9a25.6,25.6,0,0,0,7,45.34L302,210l16.19,50.8a25.45,25.45,0,0,0,20.51,17.53,26.09,26.09,0,0,0,4,.3,25.43,25.43,0,0,0,20.88-10.89l29.9-42.54,52.2,1.12a25.6,25.6,0,0,0,21-41Z"/><g class="cls-2"><path d="M318.21,260.77a25.36,25.36,0,0,0,6.27,10.35,25.63,25.63,0,0,0,39.07-3.4l29.9-42.54,52.21,1.12a25.6,25.6,0,0,0,21-41l-31.82-42.42,16.58-50a25.46,25.46,0,0,0-6.2-26.16L302,210Z"/></g><circle class="cls-4" cx="486.4" cy="121.6" r="12.8"/><circle class="cls-3" cx="492.8" cy="19.2" r="19.2"/><circle class="cls-4" cx="364.79" cy="12.8" r="12.8"/><circle class="cls-3" cx="422.39" cy="281.6" r="19.2"/><circle class="cls-4" cx="223.98" cy="89.6" r="12.8"/></svg>